# File created by Blade
# Date/Time:  Wed Jan 21 19:19:18 2015
# Frame Rate: 120.000 fps
#------------------------------------------------------
:FULLY-SPECIFIED
:DEGREES
1222
root -0.052909 32.813393 -0.296020 43.649139 0.401926 -1.027033
RightUpLeg -37.505217 -11.510120 6.033753
RightLeg -4.145500 -0.000000 0.000000
RightFoot -5.158994 1.856381 24.842113
RightToeBase 21.313621 -0.000000 -0.000000
LeftUpLeg -39.330276 3.897666 0.875760
LeftLeg 0.153923 -0.000000 -0.000000
LeftFoot -6.817837 -11.713958 -13.731449
LeftToeBase 11.398543 -0.000000 -0.000000
Spine -44.361169 -0.458744 -1.492267
RightShoulder -21.756737 20.958739 -49.831979
RightArm 1.142305 -17.695924 33.841452
RightForeArm 1.611159 0.000000 -9.605121
RightHand 6.209852 -0.000000 6.064684
RightHandThumb1 -24.326973 -0.000000 -32.862282
LeftShoulder -14.796118 0.368356 41.978211
LeftArm 19.385146 -16.839230 -32.900924
LeftForeArm 18.111690 0.000000 -2.685484
LeftHand -26.124403 -0.000000 2.639346
LeftHandThumb1 -26.253704 0.000000 33.147579
Head 2.448463 -3.801001 6.436592
1223
root -0.076226 32.798309 -0.252280 43.543912 0.263706 -0.843035
RightUpLeg -37.258639 -11.566610 5.876675
RightLeg -4.301589 -0.000000 0.000000
RightFoot -5.417066 1.861550 24.586649
RightToeBase 21.453965 -0.000000 -0.000000
LeftUpLeg -39.152505 3.719697 0.835670
LeftLeg 0.231405 -0.000000 -0.000000
LeftFoot -6.947058 -11.505338 -13.539670
LeftToeBase 11.151548 -0.000000 -0.000000
Spine -44.324875 -0.526949 -1.632205
RightShoulder -21.691092 21.013119 -49.962286
RightArm 1.192821 -17.778655 33.719171
RightForeArm 1.643269 -0.000000 -9.645483
RightHand 5.924320 0.000000 6.334343
RightHandThumb1 -24.326973 -0.000000 -32.862282
LeftShoulder -14.863201 0.336923 41.920367
LeftArm 19.348722 -16.855597 -32.782619
LeftForeArm 18.241243 0.000000 -2.796127
LeftHand -26.130964 -0.000000 2.425945
LeftHandThumb1 -26.253704 0.000000 33.147579
Head 2.417430 -3.659711 6.185621
1224
root -0.103975 32.782319 -0.209353 43.407493 0.158104 -0.649754
RightUpLeg -36.967467 -11.625039 5.710066
RightLeg -4.470321 -0.000000 0.000000
RightFoot -5.668666 1.821860 24.312233
RightToeBase 21.485388 -0.000000 -0.000000
LeftUpLeg -38.968473 3.532008 0.799311
LeftLeg 0.342435 -0.000000 -0.000000
LeftFoot -7.125924 -11.337486 -13.409140
LeftToeBase 11.074017 -0.000000 -0.000000
Spine -44.248852 -0.636031 -1.760431
RightShoulder -21.635117 21.042373 -50.060662
RightArm 1.271138 -17.766785 33.614438
RightForeArm 1.538519 0.000000 -9.666036
RightHand 5.700491 -0.000000 6.609440
RightHandThumb1 -24.326973 -0.000000 -32.862282
LeftShoulder -14.919485 0.258361 41.894005
LeftArm 19.262533 -16.943819 -32.725118
LeftForeArm 18.354278 0.000000 -2.875735
LeftHand -26.167913 -0.000000 2.178517
LeftHandThumb1 -26.253704 0.000000 33.147579
Head 2.391112 -3.539235 5.940180
1225
root -0.130714 32.766904 -0.170747 43.281214 0.052674 -0.458210
RightUpLeg -36.702936 -11.636919 5.500122
RightLeg -4.612041 -0.000000 0.000000
RightFoot -5.937112 1.757997 24.116316
RightToeBase 21.573422 -0.000000 -0.000000
LeftUpLeg -38.808892 3.364905 0.745030
LeftLeg 0.457101 -0.000000 -0.000000
LeftFoot -7.261981 -11.215350 -13.333546
LeftToeBase 11.068731 -0.000000 -0.000000
Spine -44.170967 -0.744704 -1.898530
RightShoulder -21.560880 21.187721 -50.183968
RightArm 1.198422 -17.779410 33.577546
RightForeArm 1.397579 0.000000 -9.706631
RightHand 5.689600 -0.000000 6.948927
RightHandThumb1 -24.326973 -0.000000 -32.862282
LeftShoulder -14.973667 0.156378 41.920584
LeftArm 19.183505 -17.001266 -32.735134
LeftForeArm 18.432870 -0.000000 -3.012798
LeftHand -26.175192 -0.000000 2.000703
LeftHandThumb1 -26.253704 0.000000 33.147579
Head 2.360731 -3.422572 5.755339
1226
root -0.161614 32.751161 -0.130768 43.141773 -0.064181 -0.287436
RightUpLeg -36.419989 -11.648905 5.309277
RightLeg -4.757667 -0.000000 0.000000
RightFoot -6.174125 1.750542 23.954998
RightToeBase 21.710951 -0.000000 -0.000000
LeftUpLeg -38.603512 3.174420 0.738865
LeftLeg 0.520916 -0.000000 -0.000000
LeftFoot -7.382506 -10.997938 -13.161848
LeftToeBase 10.824214 -0.000000 -0.000000
Spine -44.079886 -0.826415 -2.025990
RightShoulder -21.496454 21.221662 -50.245551
RightArm 1.245739 -17.990838 33.542558
RightForeArm 1.504995 -0.000000 -9.687940
RightHand 5.466173 -0.000000 7.079403
RightHandThumb1 -24.326973 -0.000000 -32.862282
LeftShoulder -14.981147 0.157072 41.844055
LeftArm 19.099619 -17.175987 -32.680162
LeftForeArm 18.459970 -0.000000 -3.111733
LeftHand -26.198032 -0.000000 2.021338
LeftHandThumb1 -26.253704 0.000000 33.147579
Head 2.322252 -3.281112 5.530973
